PathFileType	4	(X/Y/Z)	outputs\dynamic_markers.trc
DataRate	CameraRate	NumFrames	NumMarkers	Units	OrigDataRate	OrigDataStartFrame	OrigNumFrames
360.000000	360.000000	4	48	m	360.000000	559	639
Frame#	Time	C7			CLAV			LANK			LASI			LBAK			LBHD			LELB			LFHD			LFIN			LFRM			LHEE			LIC			LKNE			LMANK			LMELB			LMKNE			LPSI			LSHO			LTHI			LTIB			LTOE			LUPA			LWRA			LWRB			RANK			RASI			RBAK			RBHD			RELB			RFHD			RFIN			RFRM			RHEE			RIC			RKNE			RMANK			RMELB			RMKNE			RPSI			RSHO			RTHI			RTIB			RTOE			RUPA			RWRA			RWRB			STRN			T10			
		X1	Y1	Z1	X2	Y2	Z2	X3	Y3	Z3	X4	Y4	Z4	X5	Y5	Z5	X6	Y6	Z6	X7	Y7	Z7	X8	Y8	Z8	X9	Y9	Z9	X10	Y10	Z10	X11	Y11	Z11	X12	Y12	Z12	X13	Y13	Z13	X14	Y14	Z14	X15	Y15	Z15	X16	Y16	Z16	X17	Y17	Z17	X18	Y18	Z18	X19	Y19	Z19	X20	Y20	Z20	X21	Y21	Z21	X22	Y22	Z22	X23	Y23	Z23	X24	Y24	Z24	X25	Y25	Z25	X26	Y26	Z26	X27	Y27	Z27	X28	Y28	Z28	X29	Y29	Z29	X30	Y30	Z30	X31	Y31	Z31	X32	Y32	Z32	X33	Y33	Z33	X34	Y34	Z34	X35	Y35	Z35	X36	Y36	Z36	X37	Y37	Z37	X38	Y38	Z38	X39	Y39	Z39	X40	Y40	Z40	X41	Y41	Z41	X42	Y42	Z42	X43	Y43	Z43	X44	Y44	Z44	X45	Y45	Z45	X46	Y46	Z46	X47	Y47	Z47	X48	Y48	Z48	

560	1.552777777777778	1.461403369903564	1.204559326171875	0.01700510829687119	1.594016313552856	1.120116233825684	0.0395248681306839	1.818796157836914	-0.02667294815182686	0.04518464207649231	1.30010712146759	0.7137724161148071	-0.01147384103387594	1.295729637145996	1.048580646514893	-0.01247928291559219	1.475214719772339	1.272386908531189	-0.1066285520792007	1.322898387908936	0.7415230274200439	-0.2244804203510284	1.585310935974121	1.351660370826721	-0.1520975828170776	1.638500452041626	0.495891809463501	-0.2036880701780319	1.459130883216858	0.6567596793174744	-0.2275843322277069	1.725161075592041	-0.01875255256891251	0.07150495052337646	1.232687711715698	0.7965349555015564	-0.06044524908065796	1.576003909111023	0.4231250882148743	0.01741872727870941	1.796382308006287	-0.01999608799815178	0.1557948589324951	1.311407089233398	0.7330766916275024	-0.1385771483182907	1.569700837135315	0.3944024741649628	0.1500670909881592	1.128038048744202	0.8168390989303589	0.08528737723827362	1.496069312095642	1.106328010559082	-0.1592841446399689	1.489520788192749	0.4704664051532745	-0.009761319495737553	1.623991966247559	0.3165890276432037	0.0005594465183094144	1.95494019985199	-0.03154901787638664	0.1815576702356339	1.413953542709351	0.9225695729255676	-0.2168851643800735	1.578973889350891	0.6158944368362427	-0.1827361434698105	1.537582755088806	0.5438249707221985	-0.1544611155986786	0.4037511944770813	0.3137997388839722	0.3445723056793213	1.330430507659912	0.7300583124160767	0.2540730237960815	1.369541764259338	1.113518595695496	0.1872686892747879	1.470907211303711	1.348428010940552	0.02271122671663761	1.656941175460815	1.316004872322083	0.5314920544624329	1.583341717720032	1.4295654296875	-0.01533619407564402	1.410146713256836	1.542682409286499	0.6431150436401367	1.538248777389526	1.432132482528687	0.5840116739273071	0.4632479250431061	0.3594015538692474	0.3091486692428589	1.301981210708618	0.8223111033439636	0.2956444621086121	0.9303486347198486	0.3049057722091675	0.4176473617553711	0.460353285074234	0.2912046611309052	0.2583853900432587	1.687590599060059	1.366407990455627	0.478573203086853	0.9362770915031433	0.269382506608963	0.284851461648941	1.161887288093567	0.8390803337097168	0.1894290894269943	1.501694202423096	1.256951093673706	0.185391753911972	1.036643385887146	0.4546756446361542	0.4020726084709167	0.7821959257125854	0.3507657051086426	0.4212320148944855	0.3443299829959869	0.09449063241481781	0.2107611298561096	1.533921837806702	1.289467453956604	0.3768743276596069	1.450910568237305	1.566341161727905	0.588240921497345	1.50030243396759	1.559550166130066	0.6562389135360718	1.54372775554657	0.9059684872627258	0.0678577795624733	1.233560800552368	0.9559339284896851	0.1170150339603424	
561	1.555555555555556	1.472460269927979	1.202884316444397	0.01442641019821167	1.601892590522766	1.113440752029419	0.0354144386947155	1.818512439727783	-0.02666387334465981	0.04512078315019608	1.298431158065796	0.7163245677947998	-0.01266711950302124	1.301119804382324	1.05240797996521	-0.01282858848571777	1.485001921653748	1.268807411193848	-0.1085337474942207	1.318267583847046	0.7418130040168762	-0.2214507460594177	1.595973372459412	1.34569239616394	-0.1558844149112701	1.635310888290405	0.4973636269569397	-0.2057252526283264	1.456094264984131	0.6566528081893921	-0.2263074070215225	1.724848747253418	-0.01906135119497776	0.0712849423289299	1.231150150299072	0.7997534275054932	-0.05980672687292099	1.575117826461792	0.4238018691539764	0.01853128522634506	1.796141624450684	-0.01988507248461246	0.1558611690998077	1.310049057006836	0.7336114048957825	-0.1345179378986359	1.566044449806213	0.3933117687702179	0.1500995308160782	1.127576351165771	0.8188577890396118	0.08539938181638718	1.501966118812561	1.10257625579834	-0.1613747328519821	1.489073991775513	0.4707756042480469	-0.009547394700348377	1.62161648273468	0.3164094686508179	0.0009459755383431911	1.95444130897522	-0.03123155049979687	0.1815491914749146	1.414303779602051	0.9198848009109497	-0.2167859822511673	1.576900005340576	0.6168925762176514	-0.1840039044618607	1.536440134048462	0.5451768636703491	-0.1532927751541138	0.4147998988628387	0.317353367805481	0.3494597673416138	1.331443905830383	0.7320896983146667	0.2553141713142395	1.379022121429443	1.116308689117432	0.1855702698230743	1.485456228256226	1.344222068786621	0.0213560126721859	1.676978707313538	1.301735162734985	0.5233718156814575	1.598613381385803	1.423246145248413	-0.01900165155529976	1.472372055053711	1.566473960876465	0.6612747311592102	1.579281210899353	1.431449890136719	0.5884138941764832	0.4748089015483856	0.3618475794792175	0.3134631514549255	1.301486611366272	0.8253084421157837	0.2960788607597351	0.9405926465988159	0.3007087409496307	0.4196150302886963	0.4704444110393524	0.2936030924320221	0.2629223167896271	1.713772296905518	1.347924709320068	0.4736457467079163	0.9458080530166626	0.2646670937538147	0.2876974642276764	1.1624436378479	0.8406256437301636	0.1890449076890945	1.518896818161011	1.253675580024719	0.1819059550762177	1.043577313423157	0.4524311423301697	0.4034246206283569	0.7937197089195251	0.3478600680828094	0.4256280064582825	0.3498957455158234	0.1026783213019371	0.2126929759979248	1.554174661636353	1.283987283706665	0.3733142912387848	1.517912030220032	1.581959843635559	0.605709433555603	1.565571784973145	1.562633037567139	0.6735972762107849	1.545509576797485	0.9013635516166687	0.0650169774889946	1.236683011054993	0.9608447551727295	0.1171815395355225	
562	1.558333333333333	1.483416795730591	1.200843691825867	0.01162358094006777	1.609281182289124	1.106676340103149	0.03144482895731926	1.818206548690796	-0.02665663324296474	0.04505461454391479	1.296958088874817	0.7191587686538696	-0.01347094122320414	1.306576490402222	1.056093096733093	-0.01321071106940508	1.494874477386475	1.265100598335266	-0.1105709969997406	1.313385009765625	0.7425450682640076	-0.2186153829097748	1.606858730316162	1.339484214782715	-0.1594700664281845	1.631904363632202	0.4991217255592346	-0.2076363116502762	1.452854156494141	0.656898021697998	-0.2252549380064011	1.724575757980347	-0.01937021315097809	0.07131778448820114	1.229918360710144	0.8033159971237183	-0.05900559574365616	1.573962211608887	0.424468070268631	0.01961493119597435	1.795945286750793	-0.01984550803899765	0.1556554436683655	1.308562994003296	0.734423041343689	-0.1307197213172913	1.562164306640625	0.3923071324825287	0.150183692574501	1.127424478530884	0.8210954666137695	0.08619040250778198	1.507808446884155	1.098769903182983	-0.1634601205587387	1.488498091697693	0.4711181819438934	-0.009404424577951431	1.619356393814087	0.3159731030464172	0.001138438237830997	1.954117178916931	-0.03096737898886204	0.1814050674438477	1.414644837379456	0.9173755645751953	-0.2167726308107376	1.574386715888977	0.618094801902771	-0.1852833479642868	1.535321474075317	0.5467708110809326	-0.1521901935338974	0.4260882437229156	0.3207352161407471	0.3541298806667328	1.332607388496399	0.7344385385513306	0.2575619518756866	1.387993454933167	1.118364572525024	0.1835903227329254	1.499215006828308	1.339947700500488	0.01974279806017876	1.690834760665894	1.289805054664612	0.5147992968559265	1.613761305809021	1.416257500648499	-0.02248235791921616	1.54077935218811	1.589113354682922	0.6774250268936157	1.618365287780762	1.430491209030151	0.5908548831939697	0.4864855706691742	0.3640423715114594	0.3174884617328644	1.300879836082458	0.8283165693283081	0.2966891825199127	0.9507338404655457	0.2971548736095428	0.4215794205665588	0.4805328249931335	0.2957828044891357	0.2671345770359039	1.735892057418823	1.328296184539795	0.4697602689266205	0.9556623101234436	0.2600033581256866	0.290502518415451	1.16266143321991	0.8425119519233704	0.1891920864582062	1.535986661911011	1.249431133270264	0.1780491918325424	1.050455212593079	0.4503186643123627	0.4047870934009552	0.805472731590271	0.3451266884803772	0.4297502338886261	0.3546845614910126	0.1115940362215042	0.2158980667591095	1.571323275566101	1.278200626373291	0.3692040741443634	1.589852929115295	1.592057466506958	0.6198747754096985	1.632898926734924	1.55872917175293	0.6848938465118408	1.546777486801147	0.8969393968582153	0.06238445267081261	1.239658832550049	0.9653820991516113	0.1174908354878426	
563	1.561111111111111	1.49381411075592	1.198821187019348	0.008530319668352604	1.616266846656799	1.099867224693298	0.02755890041589737	1.81788969039917	-0.02665169909596443	0.04497046768665314	1.295602798461914	0.7223467826843262	-0.01356738898903131	1.311788558959961	1.059692740440369	-0.01403705775737762	1.504897832870483	1.261038780212402	-0.1125101894140244	1.308741688728333	0.7437940239906311	-0.2160009145736694	1.617681503295898	1.333076000213623	-0.1628472805023193	1.628500461578369	0.5010255575180054	-0.2094302177429199	1.449689865112305	0.6573954820632935	-0.2243930548429489	1.724359273910522	-0.01947590336203575	0.07102297246456146	1.228761196136475	0.8073335886001587	-0.05811338871717453	1.572237730026245	0.4248663783073425	0.02080842666327953	1.795626282691956	-0.01975015364587307	0.1555119007825851	1.307107329368591	0.735345721244812	-0.1273168474435806	1.558025479316711	0.3910121619701385	0.1503046154975891	1.127686381340027	0.8240465521812439	0.0879313200712204	1.513513922691345	1.094882130622864	-0.1654312312602997	1.488109707832336	0.4713896512985229	-0.009186035953462124	1.616846323013306	0.3154507875442505	0.0009608246618881822	1.953832864761353	-0.0306971650570631	0.1811869591474533	1.414876103401184	0.9151154756546021	-0.2168351411819458	1.571784257888794	0.6194932460784912	-0.1867162734270096	1.533957123756409	0.5486498475074768	-0.1509844809770584	0.4377461373806	0.3239448964595795	0.3588081002235413	1.333691120147705	0.7368874549865723	0.2601430714130402	1.396927714347839	1.120082497596741	0.1818801164627075	1.512579679489136	1.335406422615051	0.01787348464131355	1.699190855026245	1.281950831413269	0.5082539319992065	1.628863930702209	1.408895134925842	-0.02562982589006424	1.616656541824341	1.608706951141357	0.6882599592208862	1.655067563056946	1.430034160614014	0.5917039513587952	0.4984368979930878	0.366101861000061	0.3210523128509521	1.300060629844666	0.8314629197120667	0.2974937558174133	0.9610461592674255	0.2937231659889221	0.423126608133316	0.4905032813549042	0.2978602349758148	0.2710441052913666	1.753205060958862	1.30936074256897	0.4690094888210297	0.9660080075263977	0.2556496262550354	0.293131023645401	1.162849545478821	0.8442698121070862	0.1897169202566147	1.554636359214783	1.24364161491394	0.1748240888118744	1.0572909116745	0.4485890865325928	0.4059842526912689	0.8173356652259827	0.3424457013607025	0.43352872133255	0.3586532175540924	0.1209055259823799	0.2197512984275818	1.58586049079895	1.272229909896851	0.3649495244026184	1.664889216423035	1.593985319137573	0.6289734244346619	1.697844982147217	1.549386858940125	0.6925176382064819	1.547591805458069	0.8925740122795105	0.06029406189918518	1.24262523651123	0.9695749878883362	0.1178481951355934	
